Coordinates
version=1
nRows=16
nColumns=63
inDegrees=yes

Units are S.I. units (second, meters, Newtons, ...)
If the header above contains a line with 'inDegrees', this indicates whether rotational values are in degrees (yes) or radians (no).

endheader
time	pelvis_tilt	pelvis_list	pelvis_rotation	pelvis_tx	pelvis_ty	pelvis_tz	hip_flexion_r	hip_adduction_r	hip_rotation_r	knee_angle_r	knee_angle_r_beta	ankle_angle_r	subtalar_angle_r	mtp_angle_r	hip_flexion_l	hip_adduction_l	hip_rotation_l	knee_angle_l	knee_angle_l_beta	ankle_angle_l	subtalar_angle_l	mtp_angle_l	L5_S1_Flex_Ext	L5_S1_Lat_Bending	L5_S1_axial_rotation	L4_L5_Flex_Ext	L4_L5_Lat_Bending	L4_L5_axial_rotation	L3_L4_Flex_Ext	L3_L4_Lat_Bending	L3_L4_axial_rotation	L2_L3_Flex_Ext	L2_L3_Lat_Bending	L2_L3_axial_rotation	L1_L2_Flex_Ext	L1_L2_Lat_Bending	L1_L2_axial_rotation	L1_T12_Flex_Ext	L1_T12_Lat_Bending	L1_T12_axial_rotation	Abs_r3	Abs_r2	Abs_r1	Abs_t1	Abs_t2	neck_flexion	neck_bending	neck_rotation	arm_flex_r	arm_add_r	arm_rot_r	elbow_flex_r	pro_sup_r	wrist_flex_r	wrist_dev_r	arm_flex_l	arm_add_l	arm_rot_l	elbow_flex_l	pro_sup_l	wrist_flex_l	wrist_dev_l
3.762712	0.996386	-3.367184	85.328189	0.255898	0.759232	0.683156	2.871647	2.561139	-10.725266	11.478811	0.200343	37.015758	18.634832	0.000000	0.090002	-4.293562	-10.862672	11.024599	0.192416	29.109314	5.750870	0.000000	-0.209227	0.034095	-0.145734	-0.388555	0.045346	-0.154843	-0.343738	0.082897	-0.154843	-0.239125	0.082897	-0.127518	-0.194288	0.069526	-0.118409	-0.119552	0.052812	-0.109301	-1.494485	0.385684	-0.810531	0.000000	0.000000	6.805851	-1.762269	1.636689	1.283340	-14.341185	38.458971	35.918852	85.986990	-2.588393	3.099007	-1.128661	-13.457429	93.837871	11.490690	70.487303	-9.546824	-2.842086
3.779661	0.882506	-3.558001	84.851944	0.255936	0.759253	0.683793	3.196755	2.447340	-10.198802	11.523811	0.201128	37.059332	18.660625	0.000000	0.176950	-4.123223	-11.320495	10.818377	0.188816	29.058413	5.564489	0.000000	-0.203483	0.030001	-0.102239	-0.377889	0.039902	-0.108629	-0.334303	0.072945	-0.108629	-0.232561	0.072945	-0.089459	-0.188955	0.061179	-0.083069	-0.116270	0.046472	-0.076679	-1.453461	0.339382	-0.568621	0.000000	0.000000	6.998015	-1.770871	2.159014	1.834820	-15.074838	40.795712	35.740160	85.011905	-2.492601	2.655499	-0.380521	-13.004962	107.406556	8.995710	66.735467	-9.300020	-3.197525
3.796610	0.753347	-3.761188	84.455410	0.255846	0.759233	0.684558	3.552989	2.305821	-9.783259	11.616539	0.202747	37.106299	18.682330	0.000000	0.329865	-3.930709	-11.579905	10.669214	0.186213	28.972140	5.251546	0.000000	-0.196777	0.023805	-0.073260	-0.365434	0.031660	-0.077838	-0.323284	0.057879	-0.077838	-0.224896	0.057879	-0.064102	-0.182727	0.048543	-0.059523	-0.112438	0.036874	-0.054945	-1.405556	0.269285	-0.407447	0.000000	0.000000	7.175016	-1.816228	2.644079	2.522466	-15.764571	43.532109	35.436136	83.593179	-2.461524	2.025435	0.386350	-12.564005	120.148200	6.716045	62.053709	-8.759080	-3.407515
3.813559	0.622579	-3.953624	84.146233	0.255652	0.759199	0.685410	3.901072	2.157272	-9.484031	11.733308	0.204785	37.149646	18.705652	0.000000	0.531360	-3.734249	-11.628983	10.598003	0.184970	28.844216	4.801029	0.000000	-0.192337	0.016322	-0.057648	-0.357189	0.021708	-0.061251	-0.315990	0.039685	-0.061251	-0.219822	0.039685	-0.050442	-0.178604	0.033283	-0.046839	-0.109901	0.025282	-0.043236	-1.373842	0.184634	-0.320620	0.000000	0.000000	7.330351	-1.874509	3.096979	3.309284	-16.376015	46.541612	34.985869	81.759742	-2.638585	1.178117	1.139128	-12.132830	131.635627	4.672635	56.585126	-7.913228	-3.576879
3.830508	0.501044	-4.144011	83.908685	0.255361	0.759140	0.686321	4.255063	2.011246	-9.282905	11.882594	0.207390	37.183147	18.721234	0.000000	0.783899	-3.553499	-11.558086	10.600795	0.185019	28.673422	4.291760	0.000000	-0.188426	0.008497	-0.043915	-0.349927	0.011302	-0.046660	-0.309566	0.020661	-0.046660	-0.215353	0.020661	-0.038426	-0.174973	0.017328	-0.035681	-0.107667	0.013163	-0.032937	-1.345911	0.096125	-0.244245	0.000000	0.000000	7.451990	-1.966863	3.421782	4.090108	-16.893046	49.442265	34.450563	79.742596	-2.900029	0.261037	1.903007	-11.738075	141.516739	2.862059	50.596982	-6.909589	-3.934873
3.847458	0.396975	-4.331193	83.770126	0.254983	0.759052	0.687275	4.609603	1.875063	-9.211595	12.058623	0.210463	37.215478	18.742056	0.000000	1.100510	-3.398602	-11.337941	10.702765	0.186798	28.466964	3.700438	0.000000	-0.185493	0.000647	-0.037462	-0.344479	0.000861	-0.039803	-0.304747	0.001574	-0.039803	-0.212000	0.001574	-0.032779	-0.172249	0.001320	-0.030438	-0.105991	0.001003	-0.028097	-1.324960	0.007324	-0.208353	0.000000	0.000000	7.554346	-2.075681	3.627218	4.824067	-17.283278	52.057170	33.833622	77.658207	-3.185761	-0.650113	2.619734	-11.385786	149.319185	1.365698	44.373859	-5.807175	-4.602582
3.864407	0.301222	-4.498776	83.699568	0.254568	0.758969	0.688233	4.947509	1.748798	-9.238662	12.253731	0.213868	37.235497	18.750768	0.000000	1.448976	-3.280529	-11.095548	10.885648	0.189990	28.258251	3.196386	0.000000	-0.185113	-0.009121	-0.032278	-0.343774	-0.012130	-0.034295	-0.304123	-0.022176	-0.034295	-0.211566	-0.022176	-0.028243	-0.171896	-0.018599	-0.026226	-0.105774	-0.014128	-0.024208	-1.322247	-0.103174	-0.179519	0.000000	0.000000	7.625616	-2.187938	3.680298	5.585398	-17.587575	54.899429	33.127160	74.921652	-3.696997	-1.648054	3.221188	-11.089806	154.551994	0.298706	38.207271	-4.569072	-5.357738
3.881356	0.219869	-4.657511	83.660415	0.254164	0.758878	0.689152	5.268563	1.631951	-9.316613	12.454074	0.217365	37.248616	18.758939	0.000000	1.807259	-3.171815	-10.726138	11.100832	0.193746	27.990166	2.526936	0.000000	-0.185379	-0.019549	-0.015849	-0.344267	-0.026000	-0.016839	-0.304559	-0.047531	-0.016839	-0.211869	-0.047531	-0.013868	-0.172143	-0.039864	-0.012877	-0.105925	-0.030281	-0.011887	-1.324141	-0.221139	-0.088147	0.000000	0.000000	7.687184	-2.302834	3.587802	6.178945	-17.750739	57.050544	32.409853	72.478135	-4.070241	-2.449151	3.734925	-10.867514	157.187967	-0.366926	32.345139	-3.400770	-6.432527
3.898305	0.154223	-4.806839	83.716809	0.253722	0.758786	0.690019	5.561912	1.522487	-9.520198	12.653365	0.220843	37.238704	18.767709	0.000000	2.196993	-3.087187	-10.265320	11.379360	0.198607	27.720154	1.864137	0.000000	-0.185817	-0.030589	-0.008022	-0.345081	-0.040684	-0.008524	-0.305279	-0.074375	-0.008524	-0.212370	-0.074375	-0.007019	-0.172550	-0.062377	-0.006518	-0.106176	-0.047383	-0.006017	-1.327273	-0.346031	-0.044617	0.000000	0.000000	7.739299	-2.407332	3.421444	6.691925	-17.806318	58.836794	31.660529	70.279335	-4.327836	-3.102341	4.092954	-10.750741	156.879710	-0.531674	27.102808	-2.319062	-7.648287
3.915254	0.105681	-4.954296	83.871825	0.253209	0.758694	0.690831	5.831454	1.416709	-9.851240	12.855239	0.224366	37.182276	18.775118	0.000000	2.622192	-3.006287	-9.602246	11.715812	0.204480	27.408992	1.048722	0.000000	-0.185593	-0.041284	-0.008002	-0.344664	-0.054908	-0.008502	-0.304910	-0.100378	-0.008502	-0.212114	-0.100378	-0.007002	-0.172341	-0.084187	-0.006502	-0.106048	-0.063949	-0.006002	-1.325671	-0.467015	-0.044506	0.000000	0.000000	7.792900	-2.510479	3.210357	7.081106	-17.777617	60.079816	30.946364	68.679175	-4.440753	-3.581604	4.344891	-10.764393	153.839115	-0.246631	22.653114	-1.392291	-8.946014
3.932203	0.077800	-5.096033	84.103686	0.252625	0.758626	0.691596	6.072835	1.318488	-10.281523	13.065309	0.228033	37.049220	18.765028	0.000000	3.071680	-2.950662	-8.893453	12.106392	0.211296	27.114327	0.294927	0.000000	-0.185707	-0.050116	-0.016489	-0.344877	-0.066654	-0.017520	-0.305098	-0.121851	-0.017520	-0.212245	-0.121851	-0.014428	-0.172448	-0.102196	-0.013397	-0.106113	-0.077629	-0.012367	-1.326488	-0.566918	-0.091707	0.000000	0.000000	7.846917	-2.635518	3.023270	7.398522	-17.713209	60.960771	30.313195	67.659494	-4.424437	-3.932769	4.564417	-10.917346	148.212377	0.416082	19.265967	-0.662072	-10.293527
3.949153	0.071673	-5.243036	84.420941	0.251942	0.758564	0.692326	6.302478	1.223869	-10.825251	13.301068	0.232147	36.824296	18.742174	0.000000	3.551850	-2.898493	-7.998524	12.540702	0.218877	26.782248	-0.599647	0.000000	-0.185059	-0.056046	-0.042090	-0.343673	-0.074542	-0.044721	-0.304034	-0.136271	-0.044721	-0.211504	-0.136271	-0.036829	-0.171846	-0.114290	-0.034198	-0.105743	-0.086816	-0.031567	-1.321858	-0.634006	-0.234091	0.000000	0.000000	7.901457	-2.763912	2.962575	7.651212	-17.629699	61.426139	29.823343	67.418583	-4.231862	-4.096711	4.706505	-11.214407	139.908896	1.516869	17.400153	-0.065450	-11.449750
3.966102	0.097218	-5.407250	84.829469	0.251067	0.758525	0.692985	6.516848	1.140327	-11.478727	13.535674	0.236242	36.484864	18.698293	0.000000	4.066391	-2.858246	-6.967028	13.007243	0.227019	26.417258	-1.552677	0.000000	-0.183116	-0.055525	-0.091591	-0.340064	-0.073848	-0.097315	-0.300841	-0.135003	-0.097315	-0.209283	-0.135003	-0.080142	-0.170041	-0.113226	-0.074418	-0.104632	-0.086008	-0.068693	-1.307978	-0.628107	-0.509401	0.000000	0.000000	7.991876	-2.908660	3.104488	7.840404	-17.582723	61.562161	29.546942	67.865151	-3.984948	-4.141490	5.054609	-11.197564	136.776315	1.634022	11.884806	0.686007	-13.106860
3.983051	0.139156	-5.580457	85.300069	0.250065	0.758500	0.693597	6.723292	1.053727	-12.218201	13.790067	0.240682	36.041957	18.634486	0.000000	4.595761	-2.810048	-5.801342	13.487124	0.235395	26.003435	-2.608527	0.000000	-0.180330	-0.050754	-0.151434	-0.334890	-0.067502	-0.160899	-0.296264	-0.123403	-0.160899	-0.206099	-0.123403	-0.132505	-0.167454	-0.103497	-0.123040	-0.103040	-0.078617	-0.113575	-1.288077	-0.574136	-0.842230	0.000000	0.000000	8.105064	-3.068158	3.401838	7.898961	-17.551407	61.168808	29.511608	69.027866	-3.615697	-3.970935	5.450119	-11.128235	134.200099	1.710551	7.289100	1.210003	-14.663481
4.000000	0.189761	-5.755751	85.818268	0.248977	0.758503	0.694194	6.922270	0.958756	-13.029670	14.063229	0.245450	35.521760	18.558229	0.000000	5.129473	-2.750690	-4.552536	13.969192	0.243808	25.542483	-3.723049	0.000000	-0.177803	-0.042860	-0.218202	-0.330199	-0.057004	-0.231839	-0.292113	-0.104210	-0.231839	-0.203212	-0.104210	-0.190926	-0.165108	-0.087400	-0.177289	-0.101597	-0.066390	-0.163651	-1.270032	-0.484841	-1.213572	0.000000	0.000000	8.236582	-3.220934	3.839016	7.810703	-17.514529	60.199258	29.686473	70.744221	-3.095233	-3.592007	5.913204	-11.004065	132.565489	1.741796	3.575741	1.527166	-16.056902
4.016949	0.242110	-5.925253	86.369505	0.247814	0.758545	0.694733	7.102421	0.852207	-13.889505	14.338740	0.250258	34.946732	18.475520	0.000000	5.647392	-2.676394	-3.285663	14.433121	0.251905	25.049691	-4.842486	0.000000	-0.175033	-0.032833	-0.285634	-0.325054	-0.043668	-0.303487	-0.287562	-0.079830	-0.303487	-0.200045	-0.079830	-0.249930	-0.162536	-0.066953	-0.232078	-0.100014	-0.050858	-0.214226	-1.250244	-0.371412	-1.588613	0.000000	0.000000	8.369388	-3.383459	4.342742	7.551095	-17.448142	58.622471	30.011255	72.840320	-2.425976	-3.033901	6.451490	-10.813995	131.922775	1.728237	0.924191	1.627362	-17.252663
